<svg id="logo" xmlns="http://www.w3.org/2000/svg" xmlns:xlink="http://www.w3.org/1999/xlink" viewBox="0 0 233 124"><defs><style>.cls-1{font-size:60.99px;font-family:NexaW01-XBold, NexaW01-XBold;}.cls-2{letter-spacing:-0.01em;}.cls-3{letter-spacing:-0.02em;}.cls-4{letter-spacing:-0.03em;}.cls-5{font-size:29.56px;fill:#4aa546;font-family:NexaW01-Regular, NexaW01-Regular;letter-spacing:0.04em;}.cls-6{fill:url(#linear-gradient);}.cls-7{fill:url(#linear-gradient-2);}.cls-8{fill:url(#linear-gradient-3);}</style><linearGradient id="linear-gradient" x1="17.55" y1="0.76" x2="50" y2="0.76" gradientTransform="translate(14.09 19.04) rotate(18.89)" gradientUnits="userSpaceOnUse"><stop offset="0" stop-color="#599146"/><stop offset="0.3" stop-color="#6da44b"/><stop offset="1" stop-color="#99cd55"/></linearGradient><linearGradient id="linear-gradient-2" x1="-0.62" y1="37.56" x2="26.6" y2="37.56" xlink:href="#linear-gradient"/><linearGradient id="linear-gradient-3" x1="39.66" y1="34.93" x2="86.59" y2="34.93" xlink:href="#linear-gradient"/></defs><title>logo</title><text class="cls-1" transform="translate(87.77 70.76)"><tspan class="cls-2">F</tspan><tspan class="cls-3" x="37.39" y="0">o</tspan><tspan x="71.91" y="0">x</tspan><tspan class="cls-4" x="104.11" y="0">y</tspan></text><text class="cls-5" transform="translate(105.59 92.34)">green</text><path class="cls-6" d="M28.62,54.86C14.09,16.17,69.43,4.14,70.13,4c-11.28,9.47-9.39,26.8-12.45,41.62s-22.42,16.3-22.42,16.3C37.79,40.17,53.74,19,54.13,18.46c-12.94,12.39-21.42,25.9-22.5,42.39Z"/><path class="cls-7" d="M23.34,74.15c-1.05-.16-1.69-.28-1.69-.28-24.59-2-16.21-31.49-16.21-31.49,1.68,7.33,10.93,10.22,16,15.32,5.45,5.46,2.44,12.4,2.44,12.4C12.55,61.26,8.53,53.47,8.31,53,10,64.35,23.34,74.15,23.34,74.15Z"/><path class="cls-8" d="M87.67,71.45c-10.14-2.46-19.48,7.22-29,10.38-10.19,3.38-19.18-4.62-19.18-4.62,14.8-6.13,32.6-8.81,33.18-8.8-13-2.27-31.89,3-35.54,5.71L38.47,72C56.22,42.68,87.67,71.45,87.67,71.45Z"/><path d="M127.11,102.37a26.2,26.2,0,0,1-3.85,3,48.48,48.48,0,0,1-8.73,4.45,70.93,70.93,0,0,1-9.33,3,92.22,92.22,0,0,1-9.61,1.9,89,89,0,0,1-19.49.66,61.72,61.72,0,0,1-18.81-4.26,42.54,42.54,0,0,1-8.4-4.54,35.75,35.75,0,0,1-7-6.44,34,34,0,0,1-5-8.08,43.09,43.09,0,0,1-2.81-9.17c-.18-.92-.32-1.84-.43-2.78,0-.38-.1-.76-.13-1.14l.23-.13c1-.6,2-1.16,3.12-1.67A83.87,83.87,0,0,1,47,73.1c3.43-1.18,6.92-2.22,10.45-3.18a65.08,65.08,0,0,0-10.78,2.14c-1.77.48-3.52,1.07-5.25,1.7S38,75.14,36.32,76c-1,.48-1.93,1-2.86,1.55-.11-1.41-.16-2.83-.18-4.24a73.09,73.09,0,0,1,.59-9.79,128.41,128.41,0,0,1,4.06-19.36,102.28,102.28,0,0,0-5.65,19.12A68.33,68.33,0,0,0,31.11,77l-.69-.5c-1.32-.91-2.59-1.88-3.87-2.84-.64-.48-1.26-1-1.89-1.47l-.94-.75-.92-.76c-1.25-1-2.44-2.07-3.65-3.12C18.56,67,18,66.5,17.39,66s-1.17-1.1-1.73-1.67c-1.14-1.13-2.26-2.29-3.31-3.51a30.25,30.25,0,0,0,2.8,4,48.49,48.49,0,0,0,3.25,3.62c.55.6,1.15,1.15,1.73,1.71s1.2,1.1,1.81,1.64,1.22,1.06,1.86,1.57,1.25,1,1.9,1.51c1.78,1.34,3.59,2.62,5.47,3.81,0,.12,0,.24,0,.36,0,.5.07,1,.11,1.51.08,1,.2,1.92.34,2.88a39,39,0,0,0,7.89,18.79A36.88,36.88,0,0,0,47,109.23a45.16,45.16,0,0,0,9,5,63.36,63.36,0,0,0,19.83,4.33,85.41,85.41,0,0,0,10.12,0,82.12,82.12,0,0,0,10-1.21,77.1,77.1,0,0,0,19.18-6c.75-.36,1.51-.72,2.25-1.13.37-.2.74-.39,1.1-.6l1.09-.63c.73-.41,1.43-.89,2.14-1.34s1.38-1,2-1.49a25.9,25.9,0,0,0,3.68-3.42,15.89,15.89,0,0,0,2.73-4.17A16.35,16.35,0,0,1,127.11,102.37Z"/></svg>